<svg id="Layer_1" data-name="Layer 1" xmlns="http://www.w3.org/2000/svg" 
          viewBox="7.214 3.885 305.772 87.68" width="500"><defs><style>.cls-1{fill:#553c90;}</style></defs><path class="cls-1" d="M389.17,198.05A38.91,38.91,0,0,0,385,197a37.56,37.56,0,0,0,1.17-4.18c1-4.8.5-8-1.5-9.12a3.37,3.37,0,0,0-1.71-.44,6.83,6.83,0,0,0-3.17,1,2.43,2.43,0,0,0-1.5-.53A2.45,2.45,0,0,0,376,187a38.33,38.33,0,0,0-2.9,3c-3.67-4.23-7.26-6.79-9.86-6.79a3.39,3.39,0,0,0-1.72.44c-2,1.17-2.52,4.32-1.5,9.12a39.85,39.85,0,0,0,1.17,4.18,38.91,38.91,0,0,0-4.17,1.07c-4.63,1.51-7.08,3.54-7.08,5.88,0,1.6,1.16,3.06,3.38,4.3a2.41,2.41,0,0,0-.08.6,2.45,2.45,0,0,0,4.6,1.22c1.05.31,2.17.59,3.35.83a39.7,39.7,0,0,0-1.17,4.17c-1,4.8-.5,8,1.5,9.13a3.39,3.39,0,0,0,1.72.44c2.6,0,6.19-2.56,9.86-6.79,3.68,4.23,7.26,6.79,9.87,6.79a3.37,3.37,0,0,0,1.71-.44c1.52-.89,2.19-2.94,2-6a2.48,2.48,0,0,0-.85-4.73c-.24-.87-.5-1.74-.79-2.59a38.25,38.25,0,0,0,4.17-1.08c4.63-1.51,7.08-3.54,7.08-5.87S393.8,199.56,389.17,198.05Zm-12.27-9.84a2.45,2.45,0,0,0,3.85-2.05,2.85,2.85,0,0,0-.11-.72,5.22,5.22,0,0,1,2.32-.71,1.89,1.89,0,0,1,1,.24c1.34.78,1.63,3.59.8,7.52a39.18,39.18,0,0,1-1.2,4.22,55.86,55.86,0,0,0-5.92-.68,56.32,56.32,0,0,0-3.55-4.85A37.9,37.9,0,0,1,376.9,188.21Zm1.82,19c-.62,1.07-1.26,2.13-1.94,3.17a64.89,64.89,0,0,1-7.38,0c-.67-1-1.32-2.1-1.93-3.17s-1.2-2.18-1.76-3.29a72.08,72.08,0,0,1,3.69-6.45,69.87,69.87,0,0,1,7.38,0,68.75,68.75,0,0,1,3.69,6.45C379.92,205,379.33,206.13,378.72,207.21Zm2.56-1.62c.64,1.35,1.22,2.73,1.74,4.13-1.46.24-2.93.42-4.4.54q.69-1.12,1.38-2.31C380.44,207.17,380.87,206.39,381.28,205.59Zm-5.52,6.33q-1.26,1.86-2.67,3.6-1.41-1.74-2.67-3.6,1.32.06,2.67.06T375.76,211.92Zm-8.19-1.66q-2.22-.18-4.41-.54c.49-1.32,1.07-2.7,1.74-4.13.42.8.85,1.58,1.29,2.36s.91,1.56,1.38,2.31Zm-2.66-8c-.64-1.35-1.22-2.73-1.75-4.12q2.19-.36,4.41-.54c-.47.75-.93,1.51-1.38,2.3S365.32,201.46,364.91,202.26Zm5.51-6.33q1.26-1.85,2.67-3.6,1.41,1.75,2.67,3.6c-.88,0-1.77-.05-2.67-.05S371.3,195.9,370.42,195.93Zm9.58,4c-.45-.77-.91-1.54-1.38-2.3,1.47.12,2.94.3,4.4.54-.53,1.39-1.11,2.77-1.74,4.12C380.87,201.47,380.44,200.69,380,199.9Zm-18.54-7.41c-.84-3.93-.54-6.74.79-7.52a1.92,1.92,0,0,1,1-.24c1.95,0,5.24,2.22,8.89,6.45-1.19,1.46-2.38,3.08-3.55,4.85a56,56,0,0,0-5.92.68A36.87,36.87,0,0,1,361.46,192.49Zm-3.33,16.09a2.43,2.43,0,0,0-4-1.63c-1.73-1-2.69-2-2.69-3,0-2.06,3.91-4.27,10.27-5.52a58.47,58.47,0,0,0,2.38,5.52,58.47,58.47,0,0,0-2.38,5.52A36,36,0,0,1,358.13,208.58Zm5.1,14.54a1.83,1.83,0,0,1-1-.24c-1.76-1-1.7-5.55.4-11.73,1.87.31,3.85.54,5.92.68,1.1,1.67,2.29,3.29,3.55,4.85C368.47,220.91,365.18,223.12,363.23,223.12Zm21.12-9.3a2.49,2.49,0,0,0,.8,4.56c.16,2.34-.26,3.94-1.22,4.5a1.79,1.79,0,0,1-1,.24c-1.95,0-5.25-2.21-8.9-6.44,1.26-1.56,2.45-3.18,3.55-4.85q3-.2,5.92-.68.48,1.4.81,2.67Zm.15-4.37q-1-2.82-2.37-5.52,1.32-2.7,2.37-5.52c6.36,1.25,10.27,3.46,10.27,5.52s-3.91,4.26-10.27,5.52Z" transform="translate(-349.93 -183.24)"/><path class="cls-1" d="M409.91,214.8a6.28,6.28,0,0,1-2.36-.42,4.76,4.76,0,0,1-1.8-1.25l1.92-5.09a5.47,5.47,0,0,0,1.11.74,4.29,4.29,0,0,0,2.08.47,3,3,0,0,0,1.74-.47,3.54,3.54,0,0,0,1.18-1.46,13.34,13.34,0,0,0,.84-2.51c.25-1,.5-2.2.76-3.61l2.36-13.57h5l-2.36,13.6a44.7,44.7,0,0,1-1.21,5.54,17.55,17.55,0,0,1-1.82,4.3,7.41,7.41,0,0,1-2.9,2.77A9.61,9.61,0,0,1,409.91,214.8Z" transform="translate(-349.93 -183.24)"/><path class="cls-1" d="M428.94,215a6.45,6.45,0,0,1-3.95-1.14,6.6,6.6,0,0,1-2.23-3,11.81,11.81,0,0,1-.7-4.15,14.87,14.87,0,0,1,.7-4.61,12.51,12.51,0,0,1,2-3.87,9.68,9.68,0,0,1,3.14-2.64,8.59,8.59,0,0,1,4.08-1,6.1,6.1,0,0,1,6.2,4.11,11.79,11.79,0,0,1,.72,4.22,14.62,14.62,0,0,1-.71,4.54,12.56,12.56,0,0,1-2,3.88A9.55,9.55,0,0,1,433,214,8.59,8.59,0,0,1,428.94,215Zm.7-5.13a2.93,2.93,0,0,0,1.58-.46,4.51,4.51,0,0,0,1.33-1.32,6.7,6.7,0,0,0,.92-2,8.77,8.77,0,0,0,.34-2.44,7,7,0,0,0-.28-2.09,2.91,2.91,0,0,0-.84-1.37,2,2,0,0,0-1.39-.5,2.8,2.8,0,0,0-1.56.48,5,5,0,0,0-1.33,1.31,6.61,6.61,0,0,0-.94,2,9.16,9.16,0,0,0-.33,2.5,6.81,6.81,0,0,0,.27,2,2.86,2.86,0,0,0,.86,1.37A2,2,0,0,0,429.64,209.86Z" transform="translate(-349.93 -183.24)"/><path class="cls-1" d="M445.53,215a8.7,8.7,0,0,1-3.75-.82,6.64,6.64,0,0,1-2.83-2.41l2.38-3.69a9.94,9.94,0,0,0,2.41,1.92,4.85,4.85,0,0,0,2.4.67,2.34,2.34,0,0,0,1.08-.22,1.5,1.5,0,0,0,.68-.61,1.9,1.9,0,0,0,.23-.94,1.36,1.36,0,0,0-.54-1.11,6.73,6.73,0,0,0-1.76-.88,20.21,20.21,0,0,1-2.72-1.29,4.38,4.38,0,0,1-1.55-1.46,3.88,3.88,0,0,1-.5-2,7.43,7.43,0,0,1,3.67-6.58,7.17,7.17,0,0,1,3.7-1,7.93,7.93,0,0,1,3.17.61,6.46,6.46,0,0,1,2.56,2.21L451.65,201a9.81,9.81,0,0,0-2-1.66,3.6,3.6,0,0,0-1.81-.51,2.41,2.41,0,0,0-1.07.22,1.59,1.59,0,0,0-.7.63,1.89,1.89,0,0,0-.25,1,1.18,1.18,0,0,0,.49,1,7.66,7.66,0,0,0,1.75.79,13.78,13.78,0,0,1,2.83,1.29,4.78,4.78,0,0,1,1.6,1.6,4.34,4.34,0,0,1,.52,2.24,7.64,7.64,0,0,1-.93,3.82,6.66,6.66,0,0,1-2.62,2.59A8,8,0,0,1,445.53,215Z" transform="translate(-349.93 -183.24)"/><path class="cls-1" d="M461.5,215a6.11,6.11,0,0,1-3.55-1.05,6.63,6.63,0,0,1-2.34-2.94,11,11,0,0,1-.81-4.34,13.16,13.16,0,0,1,.76-4.67,12.37,12.37,0,0,1,2.22-3.86,10.67,10.67,0,0,1,3.29-2.61,9,9,0,0,1,4.07-.94,7.34,7.34,0,0,1,3.17.64,4.6,4.6,0,0,1,2.05,1.9,6.05,6.05,0,0,1,.72,3.06,5.54,5.54,0,0,1-2.41,4.88q-2.4,1.65-7.14,1.65c-.61,0-1.28,0-2-.06s-1.49-.11-2.28-.21l.67-3.69,1.82.16c.58.05,1.19.07,1.82.07a12.57,12.57,0,0,0,2.83-.25,3,3,0,0,0,1.5-.76,1.71,1.71,0,0,0,.44-1.22,1.89,1.89,0,0,0-.24-1,1.67,1.67,0,0,0-.7-.61,2.6,2.6,0,0,0-1.08-.21,3.09,3.09,0,0,0-1.82.63,5.38,5.38,0,0,0-1.5,1.74,10.4,10.4,0,0,0-1,2.55,12.46,12.46,0,0,0-.36,3.06,5.25,5.25,0,0,0,.28,2,2.6,2.6,0,0,0,.9,1.29,2.69,2.69,0,0,0,1.58.42,3.62,3.62,0,0,0,2-.62,4.65,4.65,0,0,0,1.52-1.77l3.85,1.52a11.19,11.19,0,0,1-2.19,2.74,10.16,10.16,0,0,1-2.9,1.88A8.3,8.3,0,0,1,461.5,215Z" transform="translate(-349.93 -183.24)"/><path class="cls-1" d="M474.6,194.89h4.28l-.58,3.22a9.54,9.54,0,0,1,2.55-2.59,5.64,5.64,0,0,1,3.14-.94,4.45,4.45,0,0,1,3,1,6.72,6.72,0,0,1,1.92,2.85,11.89,11.89,0,0,1,.67,4.09,15.74,15.74,0,0,1-.7,4.73,14.28,14.28,0,0,1-1.92,4,10,10,0,0,1-2.75,2.72,5.91,5.91,0,0,1-3.23,1,4.22,4.22,0,0,1-2.81-.94,4.47,4.47,0,0,1-1.5-2.62l-2,11.28h-4.9Zm5.57,15a2.73,2.73,0,0,0,1.6-.52,5.15,5.15,0,0,0,1.36-1.42,8,8,0,0,0,1-2,7.84,7.84,0,0,0,.35-2.34,5.34,5.34,0,0,0-.34-2,3.35,3.35,0,0,0-.95-1.39,2.18,2.18,0,0,0-1.46-.51,2.24,2.24,0,0,0-.91.2,4.89,4.89,0,0,0-.93.53,4.45,4.45,0,0,0-.87.82,7.38,7.38,0,0,0-.78,1.12l-.71,4.09a7.22,7.22,0,0,0,.51,1.71,3.24,3.24,0,0,0,.92,1.25A1.89,1.89,0,0,0,480.17,209.86Z" transform="translate(-349.93 -183.24)"/><path class="cls-1" d="M494.85,186.87h4.9l-1.9,11.39a8.37,8.37,0,0,1,2.68-2.74,6.1,6.1,0,0,1,3.17-.94,3.83,3.83,0,0,1,2.31.6,3.2,3.2,0,0,1,1.14,1.63,7.06,7.06,0,0,1,.34,2.24c0,.5,0,1-.08,1.5s-.11,1-.19,1.46L505,214.61h-4.89l1.89-11a5.73,5.73,0,0,0,.13-.78c0-.23,0-.45,0-.68a2.73,2.73,0,0,0-.43-1.71,1.39,1.39,0,0,0-1.13-.53,2.34,2.34,0,0,0-1.21.43,5.83,5.83,0,0,0-1.35,1.19,6.73,6.73,0,0,0-1.08,1.8l-2,11.29h-4.9Z" transform="translate(-349.93 -183.24)"/></svg>